<?xml version="1.0" encoding="UTF-8" standalone="no"?>
<svg
   xmlns:dc="http://purl.org/dc/elements/1.1/"
   xmlns:cc="http://creativecommons.org/ns#"
   xmlns:rdf="http://www.w3.org/1999/02/22-rdf-syntax-ns#"
   xmlns:svg="http://www.w3.org/2000/svg"
   xmlns="http://www.w3.org/2000/svg"
   version="1.1"
   id="svg10"
   width="517.10272"
   height="388.80002"
   viewBox="0 0 517.10272 388.80002">
  <metadata
     id="metadata16">
    <rdf:RDF>
      <cc:Work
         rdf:about="">
        <dc:format>image/svg+xml</dc:format>
        <dc:type
           rdf:resource="http://purl.org/dc/dcmitype/StillImage" />
        <dc:title />
      </cc:Work>
    </rdf:RDF>
  </metadata>
  <defs
     id="defs14">
    <filter
       style="color-interpolation-filters:sRGB"
       id="filter116">
      <feColorMatrix
         values="1 0 0 0 0 0 1 0 0 0 0 0 1 0 0 -0.21 -0.72 -0.07 2 0 "
         result="color2"
         id="feColorMatrix114" />
    </filter>
  </defs>
  <g
     transform="translate(24.01079,-29.599998)"
     id="g18">
    <path
       style="fill:#ffcc00;filter:url(#filter116)"
       d="m 263.38722,385.18248 0.50526,-0.81752 -14.9504,-25.93248 L 233.99168,332.5 173.74584,332 113.5,331.5 l 0.13535,-1.72877 0.13535,-1.72877 29.11465,-50.42925 L 172,227.18395 v -1.10194 -1.10194 L 158.3826,201.24004 144.7652,177.5 l -1.48135,-2.36553 -1.48136,-2.36554 -1.32888,1.36554 -1.32888,1.36553 -60.031808,104.41111 -60.03182,104.41111 0.51847,0.83889 L 20.118032,386 H 141.5 262.88197 Z m 92.99323,0.0109 0.49849,-0.80657 L 312.55917,307.44343 268.23939,230.5 228.82027,162.00418 189.40115,93.50836 187.95057,93.25377 186.5,92.99918 l -14.35434,25.06741 -14.35434,25.06741 6.43997,11.183 6.43996,11.183 48.3277,84 48.3277,84 14.43854,25 14.43853,25 1.02059,1.25 1.02058,1.25 h 28.81854 28.81854 l 0.49848,-0.80657 z M 450,384.87928 v -1.12073 L 424.34481,339.12928 398.68963,294.5 357.5014,223 316.31318,151.5 290.55957,106.75 264.80596,62 H 235.40298 206 v 1.35129 1.35128 l 21.84411,37.89871 21.84411,37.89872 68.76058,119.5 68.76059,119.5 1.97686,3.25 1.97687,3.25 H 420.58156 450 Z"
       id="path80" />
    <path
       style="fill:#ffcc00;stroke-width:1.33414996"
       d="M 299.39401,225.88644 C 249.00245,138.32691 207.38734,65.682288 206.91598,64.453944 c -0.78528,-2.046406 1.58501,-2.233352 28.31683,-2.233352 h 29.17384 l 91.73566,159.389728 c 50.45462,87.66436 92.08842,160.30898 92.51955,161.4325 0.68915,1.79591 -2.74642,2.04276 -28.43148,2.04276 h -29.21536 z"
       id="path955" />
    <path
       style="fill:#ffcc00;stroke-width:1.33414996"
       d="m 290.92429,373.41174 c -3.68704,-6.42061 -34.34133,-59.70334 -68.12066,-118.40606 -33.77932,-58.70273 -62.06078,-107.95517 -62.84767,-109.44989 -1.21482,-2.30756 0.64135,-6.33404 12.30065,-26.68305 7.55225,-13.18097 14.55927,-24.097177 15.57115,-24.258234 1.16119,-0.184824 32.3314,52.784554 84.5097,143.612314 45.46846,79.14783 82.89145,144.56971 83.16219,145.38196 0.34988,1.04963 -7.94879,1.4768 -28.68971,1.4768 h -29.18196 z"
       id="path957" />
    <path
       style="opacity:0;fill:#ffcc00;stroke-width:1.33414996"
       d="M 21.072038,382.08374 C 25.16484,374.4188 134.94537,183.68618 137.87905,179.14333 c 1.90223,-2.94566 3.82736,-4.6521 4.49504,-3.98442 3.27258,3.27258 29.3058,50.51123 28.70277,52.0827 -0.3864,1.00695 -13.40614,23.83253 -28.93276,50.72352 -15.52663,26.89099 -28.49085,49.88934 -28.80938,51.10743 -0.52329,2.00103 2.54059,2.29992 31.75564,3.09788 17.78414,0.48575 45.01507,0.88318 60.51317,0.88318 h 28.17838 l 11.29663,19.60243 c 6.21315,10.78134 12.95979,22.48853 14.99254,26.01598 l 3.69591,6.41355 H 141.61807 19.469161 Z"
       id="path959" />
    <path
       style="opacity:0;fill:#ffc300;fill-opacity:0;stroke-width:1.33414996"
       d="M 358.9432,329.3847 C 239.28973,121.5725 207.73658,66.592404 206.95006,64.542763 c -0.83008,-2.163158 1.1064,-2.322171 28.27981,-2.322171 h 29.17091 l 91.72161,159.345448 c 50.44688,87.64001 92.082,160.28463 92.52247,161.4325 0.7115,1.85412 -2.45956,2.08704 -28.41475,2.08704 h -29.21562 z"
       id="path979" />
    <path
       style="opacity:0;fill:#ffc300;fill-opacity:0;stroke-width:1.33414996"
       d="M 358.9432,329.3847 C 239.28973,121.5725 207.73658,66.592404 206.95006,64.542763 c -0.83008,-2.163158 1.1064,-2.322171 28.27981,-2.322171 h 29.17091 l 91.72161,159.345448 c 50.44688,87.64001 92.082,160.28463 92.52247,161.4325 0.7115,1.85412 -2.45956,2.08704 -28.41475,2.08704 h -29.21562 z"
       id="path981" />
    <path
       style="opacity:0;fill:#ffc300;fill-opacity:0;stroke-width:1.33414996"
       d="m 290.91678,373.41174 c -3.69116,-6.42061 -34.34765,-59.70334 -68.12553,-118.40606 -33.77788,-58.70273 -62.05596,-107.95517 -62.84017,-109.44989 -1.20946,-2.30524 0.65794,-6.35447 12.30553,-26.68305 7.55225,-13.18097 14.55927,-24.097177 15.57115,-24.258234 1.16119,-0.184824 32.3314,52.784554 84.5097,143.612314 45.46846,79.14783 82.89145,144.56971 83.16219,145.38196 0.34988,1.04963 -7.94879,1.4768 -28.68971,1.4768 h -29.18196 z"
       id="path983" />
    <path
       style="opacity:1;fill:#ffc300;fill-opacity:0;stroke-width:1.33414996"
       d="M 21.072038,382.08374 C 25.16484,374.4188 134.94537,183.68618 137.87905,179.14333 c 1.90223,-2.94566 3.82736,-4.6521 4.49504,-3.98442 3.27258,3.27258 29.3058,50.51123 28.70277,52.0827 -0.3864,1.00695 -13.40614,23.83253 -28.93276,50.72352 -15.52663,26.89099 -28.49085,49.88934 -28.80938,51.10743 -0.52329,2.00103 2.54059,2.29992 31.75564,3.09788 17.78414,0.48575 45.01507,0.88318 60.51317,0.88318 h 28.17838 l 11.29663,19.60243 c 6.21315,10.78134 12.95979,22.48853 14.99254,26.01598 l 3.69591,6.41355 H 141.61807 19.469161 Z"
       id="path985" />
    <path
       style="opacity:1;fill:#ffc300;fill-opacity:0;stroke-width:1.33414996"
       d="M 358.9432,329.3847 C 239.28973,121.5725 207.73658,66.592404 206.95006,64.542763 c -0.83008,-2.163158 1.1064,-2.322171 28.27981,-2.322171 h 29.17091 l 91.72161,159.345448 c 50.44688,87.64001 92.082,160.28463 92.52247,161.4325 0.7115,1.85412 -2.45956,2.08704 -28.41475,2.08704 h -29.21562 z"
       id="path987" />
    <path
       style="opacity:1;fill:#ffc300;fill-opacity:0;stroke-width:1.33414996"
       d="m 290.91678,373.41174 c -3.69116,-6.42061 -34.34765,-59.70334 -68.12553,-118.40606 -33.77788,-58.70273 -62.05596,-107.95517 -62.84017,-109.44989 -1.20946,-2.30524 0.65794,-6.35447 12.30553,-26.68305 7.55225,-13.18097 14.55927,-24.097177 15.57115,-24.258234 1.16119,-0.184824 32.3314,52.784554 84.5097,143.612314 45.46846,79.14783 82.89145,144.56971 83.16219,145.38196 0.34988,1.04963 -7.94879,1.4768 -28.68971,1.4768 h -29.18196 z"
       id="path989" />
    <path
       style="opacity:1;fill:#ffc300;fill-opacity:0;stroke-width:1.33414996"
       d="M 21.072038,382.08374 C 25.16484,374.4188 134.94537,183.68618 137.87905,179.14333 c 1.90223,-2.94566 3.82736,-4.6521 4.49504,-3.98442 3.27258,3.27258 29.3058,50.51123 28.70277,52.0827 -0.3864,1.00695 -13.40614,23.83253 -28.93276,50.72352 -15.52663,26.89099 -28.49085,49.88934 -28.80938,51.10743 -0.52329,2.00103 2.54059,2.29992 31.75564,3.09788 17.78414,0.48575 45.01507,0.88318 60.51317,0.88318 h 28.17838 l 11.29663,19.60243 c 6.21315,10.78134 12.95979,22.48853 14.99254,26.01598 l 3.69591,6.41355 H 141.61807 19.469161 Z"
       id="path991" />
    <path
       style="opacity:1;fill:#ffc300;fill-opacity:0;stroke-width:2.33234"
       d="M 22.464791,380.1768 C 30.113862,367.64266 235.28359,55.745983 240.76637,48.317259 c 3.55509,-4.816908 7.15298,-7.607375 8.40081,-6.515547 6.11615,5.351507 54.76985,82.598798 53.64284,85.168558 -0.72214,1.64662 -25.05484,38.97229 -54.07267,82.94594 -29.01784,43.97366 -53.24678,81.58185 -53.84208,83.57374 -0.97798,3.27219 4.74813,3.76096 59.34837,5.06582 C 287.48056,299.3501 338.37267,300 367.3372,300 H 420 l 21.11236,32.05499 c 11.61181,17.63026 24.22066,36.77451 28.01968,42.54279 l 6.90732,10.4878 H 247.75425 19.469161 Z"
       id="path993" />
    <path
       style="opacity:1;fill:#ffc300;fill-opacity:0;stroke-width:1.33414996"
       d="M 21.072038,382.08374 C 25.16484,374.4188 134.94537,183.68618 137.87905,179.14333 c 1.90223,-2.94566 3.82736,-4.6521 4.49504,-3.98442 3.27258,3.27258 29.3058,50.51123 28.70277,52.0827 -0.3864,1.00695 -13.40614,23.83253 -28.93276,50.72352 -15.52663,26.89099 -28.49085,49.88934 -28.80938,51.10743 -0.52329,2.00103 2.54059,2.29992 31.75564,3.09788 17.78414,0.48575 45.01507,0.88318 60.51317,0.88318 h 28.17838 l 11.29663,19.60243 c 6.21315,10.78134 12.95979,22.48853 14.99254,26.01598 l 3.69591,6.41355 H 141.61807 19.469161 Z"
       id="path995" />
    <path
       style="opacity:1;fill:#ffc300;fill-opacity:0;stroke-width:1.33414996"
       d="M 21.072038,382.08374 C 25.16484,374.4188 134.94537,183.68618 137.87905,179.14333 c 1.90223,-2.94566 3.82736,-4.6521 4.49504,-3.98442 3.27258,3.27258 29.3058,50.51123 28.70277,52.0827 -0.3864,1.00695 -13.40614,23.83253 -28.93276,50.72352 -15.52663,26.89099 -28.49085,49.88934 -28.80938,51.10743 -0.52329,2.00103 2.54059,2.29992 31.75564,3.09788 17.78414,0.48575 45.01507,0.88318 60.51317,0.88318 h 28.17838 l 11.29663,19.60243 c 6.21315,10.78134 12.95979,22.48853 14.99254,26.01598 l 3.69591,6.41355 H 141.61807 19.469161 Z"
       id="path997" />
    <path
       style="opacity:1;fill:#ffc300;fill-opacity:0;stroke-width:1.33414996"
       d="M 21.072038,382.08374 C 25.16484,374.4188 134.94537,183.68618 137.87905,179.14333 c 1.90223,-2.94566 3.82736,-4.6521 4.49504,-3.98442 3.27258,3.27258 29.3058,50.51123 28.70277,52.0827 -0.3864,1.00695 -13.40614,23.83253 -28.93276,50.72352 -15.52663,26.89099 -28.49085,49.88934 -28.80938,51.10743 -0.52329,2.00103 2.54059,2.29992 31.75564,3.09788 17.78414,0.48575 45.01507,0.88318 60.51317,0.88318 h 28.17838 l 11.29663,19.60243 c 6.21315,10.78134 12.95979,22.48853 14.99254,26.01598 l 3.69591,6.41355 H 141.61807 19.469161 Z"
       id="path999" />
    <path
       style="opacity:1;fill:#ffc300;fill-opacity:0;stroke-width:1.33414996"
       d="m 290.91678,373.41174 c -3.69116,-6.42061 -34.34765,-59.70334 -68.12553,-118.40606 -33.77788,-58.70273 -62.05596,-107.95517 -62.84017,-109.44989 -1.20946,-2.30524 0.65794,-6.35447 12.30553,-26.68305 7.55225,-13.18097 14.55927,-24.097177 15.57115,-24.258234 1.16119,-0.184824 32.3314,52.784554 84.5097,143.612314 45.46846,79.14783 82.89145,144.56971 83.16219,145.38196 0.34988,1.04963 -7.94879,1.4768 -28.68971,1.4768 h -29.18196 z"
       id="path1001" />
  </g>
</svg>
